<?xml version="1.0" standalone="no"?><!DOCTYPE svg PUBLIC "-//W3C//DTD SVG 1.1//EN" "http://www.w3.org/Graphics/SVG/1.1/DTD/svg11.dtd"><svg class="icon" width="200px" height="200.00px" viewBox="0 0 1024 1024" version="1.1" xmlns="http://www.w3.org/2000/svg"><path fill="#666666" d="M938.666667 803.968v118.229333C938.666667 954.88 913.194667 981.333333 881.792 981.333333H142.208C110.805333 981.333333 85.333333 954.88 85.333333 922.24v-118.272c62.848 0 113.792-52.906667 113.792-118.186667s-50.858667-118.144-113.578666-118.229333H85.333333V449.28c0-10.922667 3.029333-20.992 7.978667-29.738667 1.28-16.042667 8.917333-31.232 23.253333-39.893333L664.192 49.493333c23.296-14.08 53.034667-5.717333 66.474667 18.602667l24.32 43.946667-20.053334 12.117333h3.968c5.205333-4.224 10.24-8.533333 16.085334-12.117333l24.32 43.989333c-46.506667 28.117333-62.464 90.197333-35.626667 138.794667 26.88 48.597333 86.4 65.237333 132.906667 37.205333l24.32 43.946667a125.141333 125.141333 0 0 1-19.114667 9.216v2.346666l19.114667-11.52 14.08 25.472c14.293333 10.709333 23.68 28.074667 23.68 47.786667V567.552h-0.213334c-62.72 0.085333-113.578667 52.992-113.578666 118.186667 0 65.322667 50.944 118.229333 113.792 118.229333zM701.568 320.213333a157.994667 157.994667 0 0 1 9.557333-167.424v-18.474666l-22.613333-40.832L196.394667 390.144h591.104a146.389333 146.389333 0 0 1-85.930667-69.930667z m180.224 199.04V449.28H142.208v69.973333C208.341333 543.701333 256 608.64 256 685.781333c0 77.098667-47.658667 142.08-113.792 166.485334v69.973333h739.584v-69.973333C815.658667 827.818667 768 762.88 768 685.781333c0-77.141333 47.658667-142.08 113.792-166.528z m-355.584 314.325334h-28.416a14.506667 14.506667 0 0 1-14.250667-14.805334v-29.568a14.506667 14.506667 0 0 1 14.250667-14.805333h28.416a14.506667 14.506667 0 0 1 14.250667 14.805333v29.568a14.506667 14.506667 0 0 1-14.250667 14.805334z m0-118.272h-28.416a14.506667 14.506667 0 0 1-14.250667-14.762667v-29.568a14.506667 14.506667 0 0 1 14.250667-14.805333h28.416a14.506667 14.506667 0 0 1 14.250667 14.805333v29.568a14.506667 14.506667 0 0 1-14.250667 14.762667z m0-118.229334h-28.416a14.506667 14.506667 0 0 1-14.250667-14.805333v-29.525333a14.506667 14.506667 0 0 1 14.250667-14.805334h28.416a14.506667 14.506667 0 0 1 14.250667 14.805334v29.525333a14.506667 14.506667 0 0 1-14.250667 14.805333z m-85.546667-266.197333l21.077334-12.714667a11.904 11.904 0 0 1 16.64 4.693334l12.117333 21.930666a13.056 13.056 0 0 1-4.437333 17.408l-21.077334 12.672a11.904 11.904 0 0 1-16.64-4.650666l-12.117333-21.973334a13.013333 13.013333 0 0 1 4.437333-17.365333z"  /></svg>