<?xml version="1.0" standalone="no"?><!DOCTYPE svg PUBLIC "-//W3C//DTD SVG 1.1//EN" "http://www.w3.org/Graphics/SVG/1.1/DTD/svg11.dtd"><svg class="icon" width="200px" height="200.00px" viewBox="0 0 1024 1024" version="1.1" xmlns="http://www.w3.org/2000/svg"><path fill="#bfbfbf" d="M486.4 332.8c12.8-12.8 38.4-12.8 51.2 0l313.6 313.6c12.8 12.8 12.8 32 0 44.8-12.8 12.8-32 12.8-44.8 0l-320-313.6c-6.4-12.8-6.4-32 0-44.8z"  /><path fill="#bfbfbf" d="M172.8 646.4l313.6-313.6c12.8-12.8 38.4-12.8 51.2 0 12.8 12.8 12.8 32 0 44.8l-313.6 313.6c-12.8 12.8-32 12.8-44.8 0-19.2-12.8-19.2-32-6.4-44.8z"  /></svg>